<?xml version="1.0" encoding="UTF-8"?>
<!DOCTYPE svg PUBLIC "-//W3C//DTD SVG 1.1//EN" "http://www.w3.org/Graphics/SVG/1.1/DTD/svg11.dtd">
<!-- Creator: CorelDRAW -->
<svg xmlns="http://www.w3.org/2000/svg" xml:space="preserve" width="96mm" height="31.5mm" version="1.1" style="shape-rendering:geometricPrecision; text-rendering:geometricPrecision; image-rendering:optimizeQuality; fill-rule:evenodd; clip-rule:evenodd"
viewBox="0 0 9600 3150"
 xmlns:xlink="http://www.w3.org/1999/xlink"
 xmlns:xodm="http://www.corel.com/coreldraw/odm/2003">
 <defs>
  <style type="text/css">
   <![CDATA[
    .fil0 {fill:none}
    .fil1 {fill:#FEC231}
    .fil2 {fill:#F7A635}
    .fil14 {fill:#F69F37}
    .fil10 {fill:#EF6838}
    .fil11 {fill:#F18636}
    .fil8 {fill:#F07A38}
    .fil3 {fill:#EF7739}
    .fil5 {fill:#EB6238}
    .fil4 {fill:#D7503C}
    .fil6 {fill:#D54A3C}
    .fil13 {fill:#C5363C}
    .fil9 {fill:#B9433A}
    .fil12 {fill:#AB3F37}
    .fil7 {fill:#A33D37}
   ]]>
  </style>
   <clipPath id="id0">
    <path d="M-5364.09 2355.01l19943.39 -187.93 0 -11834.59 -19717.89 288.41 -225.5 11734.11z"/>
   </clipPath>
 </defs>
 <g id="Camada_x0020_1">
  <metadata id="CorelCorpID_0Corel-Layer"/>
  <g>
  </g>
  <g style="clip-path:url(#id0)">
   <g id="_105553207543488">
    <polygon class="fil0" points="-5364.09,-9667.51 14579.3,-9667.51 14579.3,2355.01 -5364.09,2355.01 "/>
   </g>
  </g>
  <polygon class="fil0" points="-5364.09,2355.01 14579.3,2167.08 14579.3,-9667.51 -5138.59,-9379.1 "/>
  <g id="_105553207148224">
   <path class="fil1" d="M427.71 1998.25c0,158.33 11.44,216.43 85.92,345.34 40.07,69.36 89.75,121.28 152.02,167.45 167.73,124.37 303.49,159.61 512.46,185.95 22.23,2.81 45.83,4.7 70.33,5.77l99.06 0c111.01,-4.39 227.73,-22.77 315.01,-51.04 96,-31.08 160.13,-57.3 241.57,-123.27l92.73 -87.28c101.74,-120.3 94.07,-207.89 104.78,-344.54l4.86 -116.33 -803.27 0c0,25.6 -4.51,31.04 -4.51,58.33 0,191.99 -7.22,161.55 63.18,161.55l361.01 4.48c-1.86,22.28 -36.23,95.26 -47.62,114.19 -42.21,70.09 -122.24,108.67 -203.88,124.85 -230.69,45.71 -499.82,-4.17 -604.42,-213.6 -86.37,-172.94 -53.9,-393.12 99.69,-512.67 164.11,-127.73 463.46,-140.74 624.57,-32.51 31.15,20.94 70.2,57.14 86.83,93.16 3.95,8.55 4.2,18.23 17.76,18.23l383.58 0c0,-185.19 -210.84,-316.01 -365.53,-372.45 -383.62,-139.96 -949.18,-76.69 -1190.5,297.03 -38.96,60.35 -95.63,181.27 -95.63,277.36z"/>
   <path class="fil2" d="M7121.35 1450.79c-30.46,-177.49 329.62,-214.97 371.06,-42.72 21.19,88.1 -68.14,147.29 -160.03,150.47 -91.4,3.15 -198.41,-34.26 -211.03,-107.75zm664.47 -556.43c-19.31,112.04 -135.77,174.96 -268.76,174.93 -210.68,-0.06 -346.17,-200.28 -159.11,-324.24 146.72,-97.23 455.35,-10.22 427.87,149.31zm-647.64 -436.7l-292.8 1213.01c27.83,60.7 38.1,8.74 -6.05,165.06 -10.51,37.21 -44.15,149.18 -44.15,183.91 58.66,-18.39 103.64,-45.24 159.13,-69.43 52.65,-22.96 109.5,-48.38 160.37,-73.92 50.09,-25.16 107.75,-50.63 160.56,-73.8l318.04 -146.13c98.53,-44.94 228.78,-100.2 321.87,-146.44 46.85,-23.26 110.3,-58.22 160.72,-72.96 1.12,-21.63 -52.74,12.65 -26.72,-35.26 -16.69,-7.16 -20.07,-10.6 -25.08,-27.55 -77.45,8.21 -135.52,13.23 -196.68,-20.96 -42.78,-23.92 -91.87,-81.14 -55.3,-146.89 46.83,-84.19 179.09,-98.66 248.43,-76.51 29.9,9.54 53.06,33.29 80.88,36.08 13.6,-21.65 -41.69,-25.7 -57.58,-47.15 26.36,-15.7 45.23,-7.95 57.03,-25.57 6.55,-9.77 -1.49,-5.19 20.38,-32.76 -11.31,-19.19 -10.49,-3.72 -5.38,-19.32 7.42,-22.64 -0.31,2.16 -6.9,-26.39l47.09 -21.6 -15.36 -21.88 112.73 -30.39c-14.31,-47.39 -11.4,-68.14 -17.38,-119.53l-62.34 0.21c3.46,-8.48 9.34,-28.82 12.56,-33.95 11.22,-17.87 10.9,-2.92 36.81,-10.37 -99.23,-120.73 -831.51,-355.75 -1078.58,-361l-6.3 41.49z"/>
   <path class="fil3" d="M3969.14 1629.12c41.45,-20.35 307.99,-1.59 365.29,7.19 109.72,16.8 202.11,66.19 199.74,187.01 -2.25,114.86 -96.5,164.61 -201.94,184.97 -54.27,10.48 -323.52,24.73 -367.78,9.15 -7.01,-111.32 -6.95,-277.99 4.69,-388.32zm-396.05 1046.72l392.6 0 0 -426.3c54.25,4.49 99.41,11.25 154.09,5.14 73.23,-8.18 212.19,-1.5 318.62,-15.25 69.62,-8.99 193.38,-45.55 256.97,-81.02 81.56,-45.5 128.07,-83.32 175.43,-162.1 50.61,-84.17 47.08,-91.06 47.08,-182.04 0,-168.53 -86.58,-272.08 -225.63,-341.05 -132.06,-65.5 -325.73,-94.23 -478.35,-94.23l-640.81 0 0 1296.85z"/>
   <path class="fil4" d="M8947.75 2509.8c-204.81,0 -309.32,-188.32 -59.07,-215.8 90.17,-9.9 160.93,-13.05 257.64,-13.05 27.45,0 32.91,4.49 58.66,4.49 10.61,45.25 1.72,81.15 -17.93,121.27 -36.02,73.54 -151.83,103.09 -239.3,103.09zm-500.91 -466.68l156.71 5.71c44.11,6.01 107.43,3.26 159.18,3.26 17.72,0 6.32,-10.87 35.24,-45.72 69.92,-84.27 356.08,-119.35 396.11,38.61 7.34,28.98 9,56.03 15.41,83.4 -207.94,0 -547.12,-10.02 -710.48,101.24 -43.02,29.31 -101.81,99.3 -101.81,168 0,137.26 44.71,196.67 156.42,248.32 135.54,62.66 375.35,69.76 515.46,24.89 25.96,-8.31 49.63,-16.81 75.36,-28.27 23.76,-10.59 47.84,-33.49 69.57,-38.52 0,30.04 -1.22,47.34 4.51,71.8l338.45 0 0 -556.44c0,-205.53 -69.74,-284.59 -251.33,-355.86 -99.8,-39.17 -194.72,-34.54 -299.22,-34.54 -147.67,0 -261.55,26.39 -364.06,73.27 -14.45,6.61 -21.88,11.31 -34.96,19.08 -13.14,7.79 -22.74,11.13 -35.21,18.84 -60.26,37.23 -125.35,120.82 -125.35,202.93z"/>
   <path class="fil2" d="M2842.02 1935.42c43.86,0 85.93,8.17 118.75,21.03 18.38,7.2 29.23,13.19 44.65,22.91 11.69,7.38 32.27,21.8 40.48,31.55 108.77,129.16 104.76,403 -97.39,461.18 -112.24,32.3 -235.01,27.15 -319.81,-59.79 -113.21,-116.05 -94.11,-348.64 46.02,-432.33 41.22,-24.63 101.25,-44.55 167.3,-44.55zm-640.81 224.37l0 76.29c0,224.94 180.05,363.94 361.51,421.33 134.79,42.63 179.36,40.86 315.4,40.86 146.95,0 319.19,-55.04 435.9,-145.42 14.31,-11.07 21.59,-20.8 34.82,-32.69l9.47 -8.53c62.96,-62.59 115.49,-160.18 115.49,-257.61 0,-109.62 -8.02,-175.92 -65.68,-271.23 -37.59,-62.14 -81.28,-99.75 -140.09,-138.92 -217.24,-144.71 -630.49,-157.34 -862.93,-6.36 -52.56,34.14 -95.63,77.99 -133.07,127.95 -27.02,36.07 -70.82,133.59 -70.82,194.33z"/>
   <path class="fil5" d="M5612.84 1966.84c0,23.95 30.52,18.72 51.51,15.39 29.97,-4.76 480.37,-1.93 521.61,-1.93 -20.21,37.97 -67.87,73.12 -95.86,97.63l-481.48 414.22c-33.86,34.8 -18.34,113.12 -18.34,183.69l1114.65 0 0 -215.4 -613.74 0c26.51,-39.36 203.81,-182.12 260.55,-239.01l266.31 -242.25c25.07,-24.93 60.39,-57.3 78.93,-87.55 13.01,-21.24 35.02,-101.49 35.02,-135.7l-1119.16 0 0 210.91z"/>
   <path class="fil6" d="M7801.52 1976.42c-3.29,11.44 -19.29,30.67 -28.06,38.8 -8.28,7.68 -9.94,7.58 -17.74,13.77 -7.99,6.35 -10.96,10.54 -18.47,17.53 -8.43,7.85 -9.72,7.6 -17.59,13.92l-282.59 244.01c-56.69,52.45 -129.97,112.57 -182.67,163.9 -15.43,15.02 -23.24,17.64 -35.02,38.17l0.19 157.43c253.88,-8.24 549.05,-7.94 807.59,-6.42 84.92,0.51 185.05,9.08 263.46,-8.32 -0.79,-28.64 -1.53,-57.03 -2.12,-85.69l-4.14 -71.12c-3.91,-15.31 -0.31,-4.58 -4.49,-11.23 -128.78,-29.65 -387.13,21.94 -589.2,-14.09 0.87,-9.54 -2.22,-3.12 7.06,-6.94 28.17,-40.03 128.09,-115.14 168.12,-155.61 15.63,-15.8 27.29,-22.44 42.89,-38.13l255.19 -230.86c10,-8.36 12.42,-8.56 22.35,-18.17 9.47,-9.17 11.38,-11.52 21.39,-19.12 114.37,-86.86 76.71,-142.91 76.71,-242.32 -96.1,0 -205.59,-6.04 -293.99,3.83l-219.83 -4.46c-21.05,-2.21 -43.5,-8.99 -68.32,-7.77 -38.95,6.68 -164.3,49.28 -179.75,81.74 -72.18,-2.58 -29.9,25.84 -68.18,4.19 -43.56,58.76 -39.44,38.52 -114.48,64.91 -42.27,14.86 -88.2,35.94 -115.18,63.07 98.6,2.84 205.32,2.33 302.41,-1.76 42.42,-1.79 214.26,-3.87 258.11,5.74 30.94,6.78 17.86,9.51 16.35,11z"/>
   <path class="fil7" d="M6971.18 516.84c24.79,-8.79 26.26,-30.38 36.31,-57.57 9.41,-25.45 21.41,-40.75 31.83,-62.37 60.74,-1.64 35.86,-4.97 44.41,34.69 4.69,21.74 30.32,23.08 54.45,26.07l6.3 -41.49c247.07,5.25 979.35,240.27 1078.58,361 78.95,11.27 137.29,78.11 194.85,119.18 22,15.7 43.89,25.6 67.65,40.19 43.99,27 214.87,193.42 228.13,198.75 8.15,6.02 6.72,6.07 17.45,12.38 10.21,-7.5 9.95,-9.2 18.05,-16.55l25.75 8.52c26.33,-56.02 60.33,-27.46 71.96,-62.1l-125.11 -111.19c-23.15,-20.03 -42.97,-37.1 -66.63,-54.73 -115.08,-85.74 -224.42,-165.73 -351.27,-238.55 -280.8,-161.19 -376.13,-161.11 -620.9,-266.54 -16.58,-7.14 -30.9,-8.52 -45.27,-14.04 -59.72,2.86 -165.23,-32.45 -224.19,-45.58 -37.81,-8.42 -74.53,-15.41 -113.55,-21.69 -32.64,-5.25 -92.12,-6.65 -118.26,-18.7 -5.89,-74.81 26.44,-149.83 40.33,-214.08l128.58 16.46c610.58,61.85 1313.01,356.76 1722.37,822.49 31.72,36.08 34.67,26.35 28.31,43.95 -2.88,13.39 6.04,9.99 21.32,8.72 6.97,-0.59 22.14,-5.83 27.72,-7.64 8.82,9.75 17.04,20.09 27.55,29.83 38.54,-1.35 86.47,-19.56 112.35,4.78 36.12,-18.84 -35.85,-92.08 -52.53,-108.84 -13.54,-13.6 -20.27,-17.31 -33.83,-29.18 -21.02,-18.4 -40.68,-40.38 -60.96,-60.55 -10.87,-10.8 -18.5,-18.35 -29.29,-29.2 -13.28,-13.35 -21.04,-17.21 -33.94,-29.07 -21.43,-19.72 -39.98,-39.86 -60.87,-60.64 -105.31,-104.71 -221.91,-181.77 -348.96,-258.79 -186.07,-112.8 -261.84,-162.08 -490.97,-243.23 -61.69,-21.86 -116.66,-42.15 -180.46,-62.87 -63.33,-20.56 -125.91,-33.73 -190.81,-52.58 -135.95,-39.51 -476.16,-92.11 -638.08,-92.83 -105.17,-0.47 -114.19,124.63 -131.97,232.24 -10.49,63.48 -23.85,137.37 -42.24,200.32 -8.03,27.49 -23.47,71.39 -24.16,101.03z"/>
   <path class="fil8" d="M7637.72 392.49c14.37,5.52 28.69,6.9 45.27,14.04 244.77,105.43 340.1,105.35 620.9,266.54 126.85,72.82 236.19,152.81 351.27,238.55 23.66,17.63 43.48,34.7 66.63,54.73l125.11 111.19c47.51,-15.48 82.75,-32.37 124.05,-52.38 42.13,-20.41 91.29,-31.89 130.36,-49.82 6.36,-17.6 3.41,-7.87 -28.31,-43.95 -409.36,-465.73 -1111.79,-760.64 -1722.37,-822.49 -15.1,28.34 -58.65,8.28 -106.3,4.25l-41.4 173.82c76.82,17.18 151.4,34.08 229.49,49.55l174.59 37.38c8.18,2.16 20.42,5.23 28.2,7.5l2.51 11.09z"/>
   <path class="fil9" d="M8846.9 1077.54c-11.63,34.64 -45.63,6.08 -71.96,62.1l-25.75 -8.52c-8.1,7.35 -7.84,9.05 -18.05,16.55 -10.73,-6.31 -9.3,-6.36 -17.45,-12.38l-2.64 17.27c-156.78,64.33 -317.47,151.86 -473.24,216.04 -54.07,22.28 -108.69,50.03 -161.94,68.36 -50.42,14.74 -113.87,49.7 -160.72,72.96 -93.09,46.24 -223.34,101.5 -321.87,146.44l-318.04 146.13c-52.81,23.17 -110.47,48.64 -160.56,73.8 -50.87,25.54 -107.72,50.96 -160.37,73.92 -55.49,24.19 -100.47,51.04 -159.13,69.43 -12.31,28.91 -36.1,109.72 -36.1,149.13 20.33,-4.71 35.96,-12.83 55.46,-21.14l105.51 -47.65c18.96,-8.79 38.24,-16.77 55.69,-25.4l218.44 -96.9c45.62,-10.68 88.49,-1.86 142.53,-1.87 45.42,0 114.74,-4.1 157.29,0.66 55.93,6.24 164.36,3.51 230.86,3.89 32.89,0.18 45.57,-5.57 76.66,-3.94 1.51,-1.49 14.59,-4.22 -16.35,-11 -43.85,-9.61 -215.69,-7.53 -258.11,-5.74 -97.09,4.09 -203.81,4.6 -302.41,1.76 26.98,-27.13 72.91,-48.21 115.18,-63.07 75.04,-26.39 70.92,-6.15 114.48,-64.91 38.28,21.65 -4,-6.77 68.18,-4.19 15.45,-32.46 140.8,-75.06 179.75,-81.74l5.11 -4.23c27.75,-19.23 162.91,-74.9 192.2,-87.33 153.45,-65.17 460.17,-203.38 601.38,-272.56l197.09 -91.21c84.07,-42.14 210.23,-92.72 300.94,-136.02 57.43,-27.41 275.93,-122.07 291.29,-145.15 -25.88,-24.34 -73.81,-6.13 -112.35,-4.78 -10.51,-9.74 -18.73,-20.08 -27.55,-29.83 -5.58,1.81 -20.75,7.05 -27.72,7.64 -15.28,1.27 -24.2,4.67 -21.32,-8.72 -39.07,17.93 -88.23,29.41 -130.36,49.82 -41.3,20.01 -76.54,36.9 -124.05,52.38z"/>
   <polygon class="fil10" points="5044.24,2675.84 5400.74,2675.84 5400.74,1755.93 5044.24,1755.93 "/>
   <path class="fil11" d="M8101.4 1165.87c20.61,33.35 56.79,79.12 24.04,131.59 -19.05,30.53 -69.03,55.68 -101.37,76.69 5.01,16.95 8.39,20.39 25.08,27.55 -26.02,47.91 27.84,13.63 26.72,35.26 53.25,-18.33 107.87,-46.08 161.94,-68.36 155.77,-64.18 316.46,-151.71 473.24,-216.04l2.64 -17.27c-13.26,-5.33 -184.14,-171.75 -228.13,-198.75 -23.76,-14.59 -45.65,-24.49 -67.65,-40.19 -57.56,-41.07 -115.9,-107.91 -194.85,-119.18 -25.91,7.45 -25.59,-7.5 -36.81,10.37 -3.22,5.13 -9.1,25.47 -12.56,33.95l62.34 -0.21c5.98,51.39 3.07,72.14 17.38,119.53l-112.73 30.39 15.36 21.88 -47.09 21.6c6.59,28.55 14.32,3.75 6.9,26.39 -5.11,15.6 -5.93,0.13 5.38,19.32 -21.87,27.57 -13.83,22.99 -20.38,32.76 -11.8,17.62 -30.67,9.87 -57.03,25.57 15.89,21.45 71.18,25.5 57.58,47.15z"/>
   <path class="fil9" d="M6971.18 516.84l-214.82 863.94c-9.09,39.88 -68.77,258.01 -69.49,289.89l158.51 0 292.8 -1213.01c-24.13,-2.99 -49.76,-4.33 -54.45,-26.07 -8.55,-39.66 16.33,-36.33 -44.41,-34.69 -10.42,21.62 -22.42,36.92 -31.83,62.37 -10.05,27.19 -11.52,48.78 -36.31,57.57z"/>
   <path class="fil12" d="M7785.82 894.36c27.48,-159.53 -281.15,-246.54 -427.87,-149.31 -187.06,123.96 -51.57,324.18 159.11,324.24 132.99,0.03 249.45,-62.89 268.76,-174.93z"/>
   <path class="fil3" d="M5012.65 1491.18l0 17.95c0,76.58 99.57,139.1 180.51,139.1 75.77,0 167.21,-6.93 216.1,-72.31 70.51,-94.31 -22.34,-214.87 -152.92,-214.87 -61.2,0 -123.14,2.79 -174.26,33.14 -27.73,16.45 -69.43,55.8 -69.43,96.99z"/>
   <path class="fil7" d="M7121.35 1450.79c12.62,73.49 119.63,110.9 211.03,107.75 91.89,-3.18 181.22,-62.37 160.03,-150.47 -41.44,-172.25 -401.52,-134.77 -371.06,42.72z"/>
   <path class="fil7" d="M8024.07 1374.15c32.34,-21.01 82.32,-46.16 101.37,-76.69 32.75,-52.47 -3.43,-98.24 -24.04,-131.59 -27.82,-2.79 -50.98,-26.54 -80.88,-36.08 -69.34,-22.15 -201.6,-7.68 -248.43,76.51 -36.57,65.75 12.52,122.97 55.3,146.89 61.16,34.19 119.23,29.17 196.68,20.96z"/>
   <path class="fil13" d="M7219.38 2506.52c-22.22,-0.65 -22.96,14.06 -22.63,70.53 0.1,16.49 -0.32,33.19 -0.12,49.6 0.29,23.33 4.26,25.34 4.69,44.7 95.89,0 176.25,4.49 270.77,4.49l830.34 0 4.53 -98.71c-0.1,-38.89 -0.01,-77.8 -0.01,-116.69l-609.22 -0.3c-9.28,3.82 -6.19,-2.6 -7.06,6.94 202.07,36.03 460.42,-15.56 589.2,14.09 4.18,6.65 0.58,-4.08 4.49,11.23l4.14 71.12c0.59,28.66 1.33,57.05 2.12,85.69 -78.41,17.4 -178.54,8.83 -263.46,8.32 -258.54,-1.52 -553.71,-1.82 -807.59,6.42l-0.19 -157.43z"/>
   <path class="fil14" d="M7637.72 392.49l-2.51 -11.09c-7.78,-2.27 -20.02,-5.34 -28.2,-7.5l-174.59 -37.38c-78.09,-15.47 -152.67,-32.37 -229.49,-49.55l41.4 -173.82c47.65,4.03 91.2,24.09 106.3,-4.25l-128.58 -16.46c-13.89,64.25 -46.22,139.27 -40.33,214.08 26.14,12.05 85.62,13.45 118.26,18.7 39.02,6.28 75.74,13.27 113.55,21.69 58.96,13.13 164.47,48.44 224.19,45.58z"/>
  </g>
  <polygon class="fil0" points="-5364.09,2355.01 14579.3,2167.08 14579.3,-9667.51 -5138.59,-9379.1 "/>
 </g>
</svg>
